<?xml version="1.0" encoding="UTF-8" standalone="no"?>
<!-- Created with Inkscape (http://www.inkscape.org/) -->

<svg
   xmlns:dc="http://purl.org/dc/elements/1.1/"
   xmlns:cc="http://creativecommons.org/ns#"
   xmlns:rdf="http://www.w3.org/1999/02/22-rdf-syntax-ns#"
   xmlns:svg="http://www.w3.org/2000/svg"
   xmlns="http://www.w3.org/2000/svg"
   xmlns:sodipodi="http://sodipodi.sourceforge.net/DTD/sodipodi-0.dtd"
   xmlns:inkscape="http://www.inkscape.org/namespaces/inkscape"
   width="210mm"
   height="297mm"
   viewBox="0 0 210 297"
   version="1.1"
   id="svg8"
   inkscape:version="0.92.1 r15371"
   sodipodi:docname="inky.svg">
  <defs
     id="defs2" />
  <sodipodi:namedview
     id="base"
     pagecolor="#ffffff"
     bordercolor="#666666"
     borderopacity="1.0"
     inkscape:pageopacity="0.0"
     inkscape:pageshadow="2"
     inkscape:zoom="0.35"
     inkscape:cx="400"
     inkscape:cy="560"
     inkscape:document-units="mm"
     inkscape:current-layer="layer1"
     showgrid="false"
     inkscape:window-width="1024"
     inkscape:window-height="551"
     inkscape:window-x="0"
     inkscape:window-y="25"
     inkscape:window-maximized="1" />
  <metadata
     id="metadata5">
    <rdf:RDF>
      <cc:Work
         rdf:about="">
        <dc:format>image/svg+xml</dc:format>
        <dc:type
           rdf:resource="http://purl.org/dc/dcmitype/StillImage" />
        <dc:title></dc:title>
      </cc:Work>
    </rdf:RDF>
  </metadata>
  <g
     inkscape:label="Layer 1"
     inkscape:groupmode="layer"
     id="layer1">
    <path
       style="fill:none;stroke:#000000;stroke-width:0.26458332px;stroke-linecap:butt;stroke-linejoin:miter;stroke-opacity:1"
       d="m -37.797618,129.17857 c 3.023809,0.75595 6.253001,0.93693 9.071428,2.26786 11.772902,5.55942 29.07665372,18.00269 39.309523,24.94642 22.765395,15.44795 17.999051,11.7984 38.553572,27.21429 5.322057,3.99154 10.400618,8.31531 15.875,12.09524 5.121339,3.53616 10.597441,6.5289 15.875,9.82738 11.914719,7.4467 16.048458,10.30835 27.970235,17.38691 3.4937,2.07438 6.97628,4.17729 10.58333,6.04761 5.25365,2.72412 14.00935,6.43368 19.65477,8.31548 2.72562,0.90854 5.55296,1.47856 8.31547,2.26786 4.01302,1.14657 10.08822,3.27683 14.3631,3.77976 2.00206,0.23553 4.03174,0 6.04762,0 1.76389,0 3.52777,0 5.29166,0 2.26786,0 4.53572,0 6.80357,0 1.00794,0 2.04597,0.24446 3.02381,0 3.7667,-0.94168 8.15286,-5.88501 10.58334,-8.31548 6.21665,-6.21666 3.40249,-2.72256 8.31547,-10.58333 1.92599,-3.08159 5.1609,-7.57072 6.04762,-11.33929 1.10698,-4.70466 0.75595,-13.89407 0.75595,-18.14285 0,-4.7877 0,-9.5754 0,-14.3631 0,-9.0973 0.71702,-25.23883 -2.26785,-34.01785 -2.467,-7.25588 -7.00341,-13.63444 -10.58334,-20.41072 -7.47807,-14.15493 -12.05991,-23.79295 -21.92261,-36.285714 -3.42443,-4.337608 -7.4315,-8.187452 -11.33929,-12.095237 -9.34939,-9.349388 -13.53089,-12.981304 -24.19048,-20.410714 -4.18591,-2.917452 -8.64669,-5.424882 -12.85119,-8.315476 C 125.42095,49.00146 102.83798,32.43445 102.80952,32.416668 98.699266,29.847757 94.293631,27.780744 89.958332,25.613095 85.7238,23.495828 81.390873,21.581349 77.107142,19.565476 72.823413,17.549603 68.688865,15.180199 64.255951,13.517857 59.170252,11.610719 48.771365,9.4192258 43.089284,8.9821426 c -3.266143,-0.2512417 -6.551586,0 -9.827379,0 -1.397018,0 -9.754815,-0.4142592 -12.095239,0.7559524 -1.760285,0.880143 -3.093533,2.440594 -4.535714,3.779762 -7.5980993,7.055378 -7.5575562,7.556081 -13.6071426,18.142856 -2.68427459,4.697482 -5.3393159,9.4293 -7.5595236,14.363097 -4.430006,9.844458 -7.9682028,21.289478 -10.5833328,31.749999 -2.858507,11.434027 -3.514625,16.397891 -4.535715,27.970241 -0.355057,4.02397 -0.36684,8.0744 -0.755952,12.09523 -0.367305,3.79548 -1.266402,7.53399 -1.511905,11.33929 -0.259573,4.02338 0,8.06349 0,12.09524 0,4.03174 0,8.06349 0,12.09524 0,6.80357 0,13.60714 0,20.41071 0,8.14222 -1.037469,12.91297 3.02381,20.41071 1.705744,3.14907 4.394483,5.66548 6.803571,8.31548 8.257732,9.08351 7.7024165,8.17617 18.142857,14.36309 3.4954694,2.0714 6.901401,4.32939 10.583333,6.04763 3.90194,1.8209 7.998407,3.21026 12.095238,4.53571 9.539576,3.08633 18.83845,5.11542 28.726191,6.80357 13.287817,2.26865 17.694008,2.67381 30.994045,3.02381 4.534146,0.11932 9.078042,0.24482 13.607144,0 4.80713,-0.25985 9.77043,-0.0685 14.3631,-1.51191 4.41299,-1.38694 8.14114,-4.40287 12.09523,-6.80357 4.82481,-2.92934 12.38858,-8.13569 16.63096,-12.09524 3.82383,-3.5689 4.15949,-5.10706 6.04761,-9.82737 0.79959,-1.99897 1.84563,-3.93648 2.26786,-6.04763 1.1117,-5.55848 0.75595,-17.02338 0.75595,-21.92261 0,-4.53572 0,-9.07143 0,-13.60715 0,-4.53571 1.12958,-9.21433 0,-13.60714 -1.2071,-4.6943 -4.41393,-8.63418 -6.80357,-12.85119 -3.20938,-5.66362 -7.38728,-14.30568 -14.36309,-16.63095 -1.21894,-0.40631 -2.50127,-0.62811 -3.77976,-0.75595 -1.25367,-0.12537 -2.51985,0 -3.77977,0 -2.26785,0 -4.53571,0 -6.80357,0 -3.08028,0 -6.11593,-0.35236 -9.07143,0.75595 -3.37496,1.26561 -2.9896,1.74109 -6.04762,3.77976 -1.22253,0.81503 -2.49535,1.5543 -3.779756,2.26786 -0.985094,0.54727 -2.106808,0.8569 -3.023809,1.5119 -0.869945,0.62139 -1.572112,1.45615 -2.267858,2.26786 -0.819946,0.9566 -1.511906,2.01587 -2.267857,3.02381 -0.755952,1.00794 -1.756156,1.87248 -2.267858,3.02381 -0.521835,1.17413 -0.378089,2.55171 -0.755951,3.77976 -0.633154,2.05775 -1.660367,3.98215 -2.267858,6.04762 -0.655524,2.22878 -0.818959,4.58614 -1.511906,6.80357 -2.161833,6.91787 -1.692555,3.67276 -5.291666,9.07143 -1.126906,1.69036 -1.785144,3.6814 -3.023809,5.29166 -1.303658,1.69476 -2.968887,3.08081 -4.535715,4.53572 -3.379246,3.13787 -8.621287,7.82374 -12.851189,9.82738 -4.103679,1.94385 -9.837906,2.82706 -14.363096,3.02381 -5.647711,0.24555 -11.069627,1.25608 -15.875,-2.26786 -6.638098,-4.86794 -10.32402,-12.07325 -12.85119,-19.65476 -1.071655,-3.21496 -1.929989,-6.4487 -2.267857,-9.82738 -0.100294,-1.00293 0,-2.01587 0,-3.02381 0,-2.26786 0,-4.53571 0,-6.80357 0,-1.5119 0,-3.02381 0,-4.53572 0,-3.22018 -0.557791,-6.9298 1.511905,-9.82737 4.040154,-5.65622 7.867732,-6.73917 12.85119,-11.33929 1.185596,-1.0944 1.817876,-2.70782 3.02381,-3.77976 1.284618,-1.14189 4.1096,-2.63621 6.047618,-3.02381 0.308933,-0.0618 4.273738,-0.0873 4.535715,0 0.338071,0.11269 0.596582,0.43721 0.755951,0.75595 0.35636,0.71272 0.503968,1.51191 0.755955,2.26786 0.251984,0.75595 0.599678,1.48648 0.755951,2.26785 0.09883,0.49419 -0.159369,1.0338 0,1.51191 0.112692,0.33807 0.503968,1.00794 0.755952,0.75595 0.356359,-0.35636 0,-1.00794 0,-1.5119"
       id="path3680"
       inkscape:connector-curvature="0" />
    <rect
       id="rect3682"
       width="245.68451"
       height="201.83928"
       x="-163.28572"
       y="84.577377"
       style="stroke-width:0.26458332" />
    <rect
       id="rect3684"
       width="43.089287"
       height="39.309525"
       x="-105.07738"
       y="36.952377"
       style="stroke-width:0.26458332" />
    <rect
       id="rect3686"
       width="167.82143"
       height="120.95238"
       x="136.82739"
       y="73.994041"
       style="stroke-width:0.26458332" />
    <rect
       id="rect3688"
       width="117.17262"
       height="121.70833"
       x="109.61309"
       y="138.25"
       style="stroke-width:0.26458332" />
    <rect
       id="rect3690"
       width="9.0714283"
       height="13.607142"
       x="-17.386906"
       y="59.630951"
       style="stroke-width:0.26458332" />
    <rect
       id="rect3692"
       width="7.5595236"
       height="3.0238097"
       x="35.529762"
       y="29.392857"
       style="stroke-width:0.26458332" />
    <rect
       id="rect3697"
       width="1.5119048"
       height="17.386906"
       x="63.5"
       y="42.244045"
       style="stroke-width:0.26458332" />
    <rect
       id="rect3699"
       width="27.970238"
       height="19.654762"
       x="-10.583333"
       y="33.928574"
       style="stroke-width:0.26458332" />
    <rect
       id="rect3701"
       width="71.059525"
       height="25.702381"
       x="36.285713"
       y="45.267857"
       style="stroke-width:0.26458332" />
    <rect
       id="rect3706"
       width="4.5357141"
       height="46.869045"
       x="63.5"
       y="12.761905"
       style="stroke-width:0.26458332" />
    <rect
       id="rect3708"
       width="40.82143"
       height="41.577381"
       x="86.934525"
       y="20.321428"
       style="stroke-width:0.26458332" />
    <rect
       id="rect3710"
       width="24.190477"
       height="24.946428"
       x="175.38094"
       y="46.779762"
       style="stroke-width:0.26458332" />
    <rect
       id="rect3712"
       width="20.410715"
       height="23.434523"
       x="103.56547"
       y="90.625"
       style="stroke-width:0.26458332" />
    <rect
       id="rect3714"
       width="26.458328"
       height="16.630953"
       x="83.154762"
       y="121.61904"
       style="stroke-width:0.26458332" />
    <rect
       id="rect3716"
       width="27.214302"
       height="37.04166"
       x="82.398788"
       y="84.577377"
       style="stroke-width:0.26458332" />
    <rect
       id="rect3718"
       width="46.113106"
       height="23.434507"
       x="90.714287"
       y="171.5119"
       style="stroke-width:0.26458332" />
    <rect
       id="rect3720"
       width="30.994047"
       height="48.380955"
       x="281.21429"
       y="49.803574"
       style="stroke-width:0.26458332" />
    <rect
       id="rect3722"
       width="199.57143"
       height="145.14285"
       x="161.01785"
       y="62.654762"
       style="stroke-width:0.26458332" />
    <rect
       id="rect3724"
       width="44.601189"
       height="26.458332"
       x="242.66072"
       y="194.94643"
       style="stroke-width:0.26458332" />
    <rect
       id="rect3726"
       width="25.702381"
       height="20.410715"
       x="272.8988"
       y="254.66667"
       style="stroke-width:0.26458332" />
    <rect
       id="rect3728"
       width="17.386906"
       height="19.654762"
       x="303.1369"
       y="213.84523"
       style="stroke-width:0.26458332" />
    <rect
       id="rect3730"
       width="24.190477"
       height="20.410715"
       x="339.42264"
       y="244.08334"
       style="stroke-width:0.26458332" />
    <rect
       id="rect3732"
       width="4.5357056"
       height="21.166672"
       x="298.6012"
       y="233.5"
       style="stroke-width:0.26458332" />
    <rect
       id="rect3734"
       width="16.630953"
       height="9.8273811"
       x="338.66666"
       y="221.40477"
       style="stroke-width:0.26458332" />
    <rect
       id="rect3736"
       width="34.773777"
       height="34.773796"
       x="363.61313"
       y="244.08334"
       style="stroke-width:0.26458332" />
    <rect
       id="rect3738"
       width="30.238083"
       height="33.261917"
       x="242.66072"
       y="221.40475"
       style="stroke-width:0.26458332" />
    <rect
       id="rect3740"
       width="40.065475"
       height="23.434523"
       x="204.86308"
       y="268.27377"
       style="stroke-width:0.26458332" />
    <rect
       id="rect3742"
       width="26.458332"
       height="20.410715"
       x="-178.40475"
       y="30.90476"
       style="stroke-width:0.26458332" />
    <rect
       id="rect3744"
       width="40.065468"
       height="24.190472"
       x="-203.35118"
       y="60.386906"
       style="stroke-width:0.26458332" />
    <rect
       id="rect3746"
       width="38.55357"
       height="34.017857"
       x="-188.23215"
       y="100.45238"
       style="stroke-width:0.26458332" />
    <rect
       id="rect3748"
       width="33.261906"
       height="26.458332"
       x="-140.60715"
       y="76.261909"
       style="stroke-width:0.26458332" />
    <rect
       id="rect3750"
       width="37.041668"
       height="63.5"
       x="-202.59525"
       y="173.0238"
       style="stroke-width:0.26458332" />
    <rect
       id="rect3752"
       width="22.678572"
       height="56.69643"
       x="-176.1369"
       y="145.05356"
       style="stroke-width:0.26458332" />
    <rect
       id="rect3754"
       width="66.523811"
       height="45.357143"
       x="-34.773811"
       y="63.410713"
       style="stroke-width:0.26458332" />
    <rect
       id="rect3756"
       width="15.875"
       height="12.095239"
       x="235.85715"
       y="38.464287"
       style="stroke-width:0.26458332" />
    <rect
       id="rect3758"
       width="25.702381"
       height="24.190477"
       x="309.94049"
       y="30.90476"
       style="stroke-width:0.26458332" />
    <rect
       id="rect3760"
       width="16.630953"
       height="14.363094"
       x="396.11902"
       y="18.053572"
       style="stroke-width:0.26458332" />
    <rect
       id="rect3762"
       width="29.482143"
       height="27.970238"
       x="365.125"
       y="42.244045"
       style="stroke-width:0.26458332" />
    <rect
       id="rect3764"
       width="44.601204"
       height="24.190477"
       x="265.33926"
       y="30.90476"
       style="stroke-width:0.26458332" />
    <rect
       id="rect3766"
       width="11.33929"
       height="15.119048"
       x="240.39285"
       y="23.345238"
       style="stroke-width:0.26458332" />
    <rect
       id="rect3768"
       width="47.625004"
       height="27.970238"
       x="188.23215"
       y="22.589287"
       style="stroke-width:0.26458332" />
    <rect
       id="rect3770"
       width="18.898809"
       height="19.654762"
       x="363.6131"
       y="97.428574"
       style="stroke-width:0.26458332" />
  </g>
</svg>
